<svg width="32" height="32" xmlns="http://www.w3.org/2000/svg" preserveAspectRatio="xMidYMid meet" version="1.1">

 <g>
  <title>Layer 1</title>
  <g id="svg_32">
   <path stroke="null" id="svg_1" d="m546.78,120.061c86.9,-5.988 174.25,26.035 239.8,82.891c66.44,58.065 107.21,140.054 113.42,228.073c6.25,93.315 -23.69,176.325 -85.03,246.175l19.07,20.83c32.96,-23.32 65.61,-20.13 93.69,8.93c57.68,59.67 119.56,117.58 175.9,178.57c7.99,8.65 11.62,31.35 11.64,43.01c0.27,24.74 -9.42,48.55 -26.88,66.08c-12.12,12.19 -24.43,17.32 -40.06,24.34c-2.93,1.31 -24.6,2.5 -28.9,2.45c-40.15,-0.43 -61.36,-20.47 -87.92,-47.12l-38.15,-39.01c-24.02,-24.67 -48.3,-49.1 -72.83,-73.27c-31.96,-31.78 -67.4,-56.21 -39.88,-109.46c2.97,-5.75 7.56,-10.79 11.68,-15.8l-0.71,-0.83c-6.73,-8.08 -11.7,-12.45 -19.57,-19.62c-43.82,40.12 -120.29,67.49 -179.1,72.56c-89.29,7.61 -177.93,-20.71 -246.26,-78.69c-64.94,-54.95 -108.423,-140.59 -114.811,-225.24c-14.454,-191.532 124.371,-350.15 314.901,-364.869z" fill="#2563eb"/>
   <path stroke="null" id="svg_2" d="m552.04,177.268c153.27,-7.491 283.62,110.6 291.26,263.857c7.64,153.255 -110.32,283.725 -263.57,291.515c-153.46,7.8 -284.15,-110.36 -291.8,-263.83c-7.65,-153.466 110.64,-284.042 264.11,-291.542z" fill="#93c5fd"/>
   <path stroke="null" id="svg_3" d="m544.67,230.214c16.07,-0.797 30.6,-0.627 46.67,-0.438c20.94,10.805 17.71,27.16 13.45,47.743c-2.94,3.089 -6.51,5.584 -9.92,8.183c-56.99,0.001 -99.35,6.967 -143.06,48.103c-33.98,31.682 -53.59,75.836 -54.32,122.285c-1,42.69 14.22,84.17 42.59,116.08c9.6,10.63 20.07,18.62 29.96,28.99c1.71,11.31 2.79,23.61 -1.65,34.26c-24.18,20.79 -41.64,3.18 -60.73,-14.45c-81.79,-76.16 -89.44,-209.682 -22.72,-298.125c41.74,-55.331 92.38,-81.555 159.73,-92.631z" fill="#2563eb"/>
   <path stroke="null" id="svg_4" d="m875.08,739.07c2.17,1.05 2.22,0.85 3.77,2.32c48.14,46.08 93.96,94.58 141.46,141.33c9.03,8.89 22.97,21.59 30.53,31.35c4.11,5.26 6.37,11.73 6.42,18.4c0.13,23.1 -22.29,32.69 -42.39,32.15c-20.69,-6.58 -22.46,-12.32 -37.13,-27.3l-39.32,-39.87c-31.67,-31.95 -64.07,-64.09 -95.22,-96.57c-2.77,-2.89 -11.65,-13.91 -10.81,-16.77c3.53,-11.96 33.47,-37.67 42.69,-45.04z" fill="#93c5fd"/>
   <path stroke="null" id="svg_5" d="m131.934,726.74c23.202,-2.17 62.712,0.24 87.15,0.02c17.657,-0.16 50.846,-0.85 66.986,0.84c3.13,2.79 4.99,5.63 7.48,8.97l0.02,39.26c-11.05,13.81 -32.88,9.73 -49.426,9.38c-24.884,-0.54 -49.773,-0.83 -74.663,-0.89c-22.765,-0.12 -60.423,-5.84 -61.71,27.69c-0.29,7.83 2.591,15.44 7.991,21.11c4.795,4.9 11.034,8.13 17.802,9.22c6.478,1.01 51.302,0.17 60.364,0.15l142.342,-0.1l43.38,0.02c8.97,5.39 10.14,9.31 10.85,19.76c0.73,10.8 2.64,26.83 -5.06,35.61c-2.74,3.12 -8.3,3.34 -12.14,3.74c-33.94,0.73 -68.96,-0.14 -102.84,-0.13l-90.862,0.13c-16.59,0.02 -44.066,0.92 -59.495,-1.95c-14.982,-2.82 -28.962,-9.53 -40.539,-19.44c-17.517,-15.12 -28.237,-36.64 -29.76,-59.73c-3.617,-49.72 32.4,-90.83 82.13,-93.66z" fill="#2563eb"/>
   <path stroke="null" id="svg_6" d="m274.08,961.36l285.82,0l76.23,-0.02c13.93,-0.01 33.91,-0.85 47.24,1.04c3.86,2.76 5.68,4.9 8.9,8.3c0.63,13.01 0.31,26.59 0.22,39.65c-4.21,4.7 -5.99,6.97 -11.9,8.02c-32.64,1.31 -406.7,2.33 -413.96,-0.96c-3.08,-1.39 -5.73,-5.78 -6.76,-8.91c-2.47,-7.53 -3.06,-33.24 1.23,-40.09c2.88,-4.6 7.98,-6.1 12.98,-7.03z" fill="#2563eb"/>
   <path stroke="null" id="svg_9" d="m974.24,381.3c2.02,-0.144 4.23,-0.36 6.24,-0.123c10.47,1.238 102.04,62.237 115.08,72.414c4,3.129 6.99,6.559 9.97,10.649c1.2,14.56 1.05,29.21 -0.44,43.74c-11.75,13.8 -83.97,57.42 -104.03,70.07c-17.62,11.21 -28.86,17.81 -41.93,-2.9c-0.13,-12.24 -0.03,-24.49 0.31,-36.73c11.5,-11.06 61.43,-41.78 77.8,-52.53c-16.48,-14.49 -67.22,-39.722 -78.02,-54.756c-0.31,-12.574 -0.39,-25.152 -0.25,-37.728c4.89,-6.928 7.55,-8.675 15.27,-12.106z" fill="#2563eb"/>
   <path stroke="null" id="svg_10" d="m151.614,381.604c12.69,1.037 15.264,3.006 21.556,14.079c0.202,11.929 -0.156,24.676 -0.279,36.669c-7.559,9.175 -66.452,44.468 -80.025,52.498c18.725,12.45 65.032,40.13 79.29,53.35c3.993,30.06 0.488,67.21 -38.563,41.82c-20.263,-12.6 -40.411,-25.38 -60.44,-38.35c-15.056,-9.68 -32.122,-19.67 -44.959,-31.92c-0.378,-1.13 -0.756,-2.27 -1.134,-3.41c-3.314,-8.18 -4.256,-39.22 1.407,-44.92c14.309,-14.386 110.471,-76.065 123.147,-79.816z" fill="#2563eb"/>
   <path stroke="null" id="svg_30" d="m1886.46,2081.08c17.69,-1.03 25.5,9.11 12.68,24.02c-18.49,1.11 -27.91,-9.71 -12.68,-24.02z" fill="rgb(248,248,248)"/>
  </g>
 </g>
</svg>